{"title":"Django.Unchained.2012.DVDSCR.XVID-NYDIC","uid":7991293,"size":1829822030,"categoryP":"video","categoryS":"movies","magnet":"?xt=urn:btih:d32f2694376dcdb2a1fd91988ac7ece89db68799&amp;dn=Django.Unchained.2012.DVDSCR.XVID-NYDIC&amp;tr=udp%3A%2F%2Ftracker.openbittorrent.com%3A80&amp;tr=udp%3A%2F%2Fopen.demonii.com%3A1337&amp;tr=udp%3A%2F%2Ftracker.coppersurfer.tk%3A6969&amp;tr=udp%3A%2F%2Fexodus.desync.com%3A6969","seeders":2,"leechers":0,"uploader":"xxxlavalxxx","files":5,"time":1357425693,"description":" &lt;a href=&quot; http://www.shotpix.com/images/82407467551106422069.jpg&quot; rel=&quot;nofollow&quot; target=&quot;_NEW&quot;&gt; http://www.shotpix.com/images/82407467551106422069.jpg&lt;/a&gt;\n\n\n  &lt;a href=&quot;\nhttp://www.imdb.com/title/tt1853728/&quot; rel=&quot;nofollow&quot; target=&quot;_NEW&quot;&gt;\nhttp://www.imdb.com/title/tt1853728/&lt;/a&gt;\n\n\n\n\nPlot:With the help of his mentor, a slave-turned-bounty hunter sets out to rescue his wife from a brutal Mississippi plantation owner.\n \n\n\nDirector: \nQuentin Tarantino\n\n Writer: \nQuentin Tarantino\n \nStars:\n Jamie Foxx, Christoph Waltz and Leonardo DiCaprio\n\nGenres:\n Action | Drama | Western \n\n\nCountry:\nUSA \n\nLanguage:\nEnglish |German |French\n\n\n\nFormat                                   : AVI\nFormat/Info                              : Audio Video Interleave\nFile size                                : 1.70 GiB\nDuration                                 : 2h 45mn\nOverall bit rate                         : 1 474 Kbps\nWriting library                          : VirtualDub build 32706/release\n\nVideo\nID                                       : 0\nFormat                                   : MPEG-4 Visual\nFormat profile                           : Advanced Simple@L5\nFormat settings, BVOP                    : 2\nFormat settings, QPel                    : No\nFormat settings, GMC                     : No warppoints\nFormat settings, Matrix                  : Default (H.263)\nMuxing mode                              : Packed bitstream\nCodec ID                                 : XVID\nCodec ID/Hint                            : XviD\nDuration                                 : 2h 45mn\nBit rate                                 : 1 335 Kbps\nWidth                                    : 640 pixels\nHeight                                   : 272 pixels\nDisplay aspect ratio                     : 2.35:1\nFrame rate                               : 29.970 fps\nColor space                              : YUV\nChroma subsampling                       : 4:2:0\nBit depth                                : 8 bits\nScan type                                : Progressive\nCompression mode                         : Lossy\nBits/(Pixel*Frame)                       : 0.256\nStream size                              : 1.54 GiB (91%)\nWriting library                          : XviD 64\n\nAudio\nID                                       : 1\nFormat                                   : MPEG Audio\nFormat version                           : Version 1\nFormat profile                           : Layer 3\nMode                                     : Joint stereo\nMode extension                           : MS Stereo\nCodec ID                                 : 55\nCodec ID/Hint                            : MP3\nDuration                                 : 2h 45mn\nBit rate mode                            : Constant\nBit rate                                 : 128 Kbps\nChannel(s)                               : 2 channels\nSampling rate                            : 48.0 KHz\nCompression mode                         : Lossy\nStream size                              : 151 MiB (9%)\nAlignment                                : Split accross interleaves\nInterleave, duration                     : 33 ms (1.00 video frame)\nInterleave, preload duration             : 500 ms\nWriting library                          : LAME3.98.2\n\n\n &lt;a href=&quot;\nhttp://www.shotpix.com/images/30062618741367708059.png&quot; rel=&quot;nofollow&quot; target=&quot;_NEW&quot;&gt;\nhttp://www.shotpix.com/images/30062618741367708059.png&lt;/a&gt; &lt;a href=&quot;\nhttp://www.shotpix.com/images/03657993866928287410.png&quot; rel=&quot;nofollow&quot; target=&quot;_NEW&quot;&gt;\nhttp://www.shotpix.com/images/03657993866928287410.png&lt;/a&gt; &lt;a href=&quot;\nhttp://www.shotpix.com/images/88841041333100341810.png&quot; rel=&quot;nofollow&quot; target=&quot;_NEW&quot;&gt;\nhttp://www.shotpix.com/images/88841041333100341810.png&lt;/a&gt;","torrent":{"xt":"urn:btih:d32f2694376dcdb2a1fd91988ac7ece89db68799","amp;dn":"Django.Unchained.2012.DVDSCR.XVID-NYDIC","amp;tr":["udp%3A%2F%2Ftracker.openbittorrent.com%3A80","udp%3A%2F%2Fopen.demonii.com%3A1337","udp%3A%2F%2Ftracker.coppersurfer.tk%3A6969","udp%3A%2F%2Fexodus.desync.com%3A6969"],"infoHash":"d32f2694376dcdb2a1fd91988ac7ece89db68799","infoHashBuffer":{"type":"Buffer","data":[211,47,38,148,55,109,205,178,161,253,145,152,138,199,236,232,157,182,135,153]},"announce":[],"urlList":[]}}